<svg width="131" height="58" viewBox="0 0 131 58" fill="none" xmlns="http://www.w3.org/2000/svg">
<path d="M41.0547 11.7115C36.5081 7.1649 30.4759 4.6665 24.0499 4.6665C10.7926 4.6665 0 15.4591 0 28.7164C0 41.9737 10.7926 52.7663 24.0499 52.7663C30.4759 52.7663 36.5081 50.2679 41.0547 45.7212C45.6014 41.1746 48.0998 35.1424 48.0998 28.7164C48.0998 22.2903 45.6014 16.2582 41.0547 11.7115ZM24.0499 51.5283C11.4679 51.5283 1.23794 41.2984 1.23794 28.7164C1.23794 16.1344 11.4679 5.90445 24.0499 5.90445C36.6319 5.90445 46.8618 16.1344 46.8618 28.7164C46.8618 41.2984 36.6319 51.5283 24.0499 51.5283Z" fill="white"/>
<path d="M26.4917 26.1842C22.7666 24.4848 19.548 23.0218 19.7843 19.4655C19.8856 18.07 20.8872 17.2372 21.7088 16.787C22.7329 16.2243 24.1059 15.9317 25.2988 16.0105C28.4724 16.2243 30.9708 17.5636 33.4017 20.3433L34.3358 19.533C31.7023 16.5169 28.8551 15.0089 25.3776 14.7726C25.1075 14.75 24.8374 14.75 24.556 14.7613C24.4998 14.7613 24.4435 14.7613 24.3985 14.7613C22.1139 14.7613 19.6268 15.5041 17.7136 16.7645C15.4628 18.2501 14.2023 20.287 14.1686 22.5041C14.0785 27.9285 18.5689 29.7742 22.5303 31.406C26.1766 32.9141 29.339 34.2083 29.2715 37.7758C29.2377 40.1842 25.929 41.4784 23.5994 41.4784C23.5657 41.4784 23.5432 41.4784 23.5094 41.4784V41.4897H23.4982C20.0544 41.4446 16.9933 40.0041 14.3936 37.2131L13.4821 38.0572C16.2843 41.0733 19.7393 42.6938 23.4869 42.7388C23.5432 42.7388 23.5994 42.7388 23.6557 42.7388C26.0753 42.7388 28.6863 42.0974 30.6895 40.9945C33.1429 39.6552 34.5721 37.7083 34.7184 35.525C35.0898 30.1006 30.5207 28.0186 26.4917 26.1842ZM33.4805 35.4237C33.3342 37.6633 31.556 39.0925 30.093 39.8916C29.958 39.9704 29.8229 40.0379 29.6879 40.1054C30.1943 39.4527 30.4982 38.6761 30.5207 37.7871C30.5882 33.3755 26.7393 31.7887 23.0142 30.2581C19.0753 28.6375 15.3502 27.0957 15.4178 22.5153C15.4403 20.7259 16.5094 19.0491 18.4113 17.7886C18.6927 17.5973 18.9965 17.4285 19.3116 17.2597C18.8727 17.8899 18.6139 18.5989 18.5689 19.3642C18.265 23.7758 22.1927 25.5652 25.9965 27.287C30.003 29.1327 33.7956 30.8658 33.4805 35.4237Z" fill="white"/>
<path d="M62.6359 27.1517C61.8144 27.1517 61.0041 27.0167 60.2163 26.7578C59.4285 26.499 58.7533 26.1164 58.1906 25.6324L59.1246 24.0569C59.7211 24.4845 60.3063 24.7996 60.8803 25.0247C61.443 25.2385 62.0169 25.3511 62.5796 25.3511C63.0748 25.3511 63.4687 25.2611 63.7613 25.0697C64.0539 24.8784 64.189 24.6196 64.189 24.2594C64.189 23.9106 64.0201 23.6517 63.6825 23.4942C63.3449 23.3366 62.7935 23.1453 62.0394 22.9315C61.398 22.7514 60.8578 22.5826 60.4076 22.425C59.9574 22.2675 59.5973 22.0762 59.316 21.8736C59.0459 21.671 58.8433 21.4347 58.7195 21.1646C58.5957 20.8945 58.5282 20.5794 58.5282 20.1967C58.5282 19.7016 58.6295 19.2514 58.8208 18.8462C59.0121 18.4524 59.2822 18.1035 59.6311 17.8221C59.9799 17.5408 60.3851 17.3269 60.8578 17.1806C61.3304 17.0343 61.8369 16.9556 62.3883 16.9556C63.1198 16.9556 63.8176 17.0569 64.4591 17.2707C65.1005 17.4845 65.697 17.8221 66.2259 18.3061L65.2131 19.8253C64.7179 19.454 64.234 19.1726 63.7613 19.0038C63.2886 18.8237 62.8272 18.745 62.3658 18.745C61.9381 18.745 61.5893 18.835 61.2967 19.0038C61.0041 19.1839 60.869 19.4652 60.869 19.8479C60.869 20.0279 60.9028 20.163 60.9703 20.2755C61.0378 20.388 61.1504 20.4893 61.2967 20.5794C61.443 20.6694 61.6455 20.7482 61.8819 20.827C62.1295 20.9057 62.4333 20.9958 62.7934 21.0745C63.4687 21.2546 64.0426 21.4234 64.5266 21.6035C65.0105 21.7836 65.4044 21.9749 65.7082 22.2C66.0121 22.425 66.2372 22.6839 66.3835 22.9765C66.5298 23.2691 66.5973 23.618 66.5973 24.0344C66.5973 24.991 66.2372 25.7562 65.5282 26.3077C64.8304 26.8816 63.8626 27.1517 62.6359 27.1517Z" fill="white"/>
<path d="M78.729 22.7178H70.8849C71.02 23.4493 71.3801 24.0345 71.9653 24.4735C72.5505 24.9011 73.2708 25.1149 74.1261 25.1149C75.229 25.1149 76.1293 24.7548 76.8383 24.0233L78.0875 25.4638C77.6373 26.004 77.0746 26.4092 76.3881 26.6792C75.7016 26.9493 74.9251 27.0956 74.0698 27.0956C72.9669 27.0956 71.9991 26.8818 71.1663 26.4429C70.3335 26.004 69.6807 25.3963 69.2306 24.6198C68.7691 23.8432 68.5441 22.9542 68.5441 21.9751C68.5441 20.996 68.7691 20.1294 69.2081 19.3416C69.647 18.5651 70.2659 17.9574 71.0537 17.5185C71.8415 17.0795 72.7306 16.8657 73.7097 16.8657C74.6888 16.8657 75.5553 17.0795 76.3206 17.5072C77.0859 17.9349 77.6823 18.5426 78.1212 19.3191C78.5489 20.0956 78.7627 21.0072 78.7627 22.0201C78.7627 22.1889 78.7515 22.414 78.729 22.7178ZM71.8077 19.3979C71.2901 19.8368 70.9749 20.4333 70.8624 21.1648H76.5344C76.4331 20.4445 76.1293 19.8593 75.6116 19.4091C75.0939 18.959 74.4637 18.7339 73.6984 18.7339C72.9556 18.7226 72.3254 18.9477 71.8077 19.3979Z" fill="white"/>
<path d="M83.5458 26.4429C82.7242 26.004 82.0828 25.3963 81.6213 24.6198C81.1599 23.8432 80.9236 22.9542 80.9236 21.9751C80.9236 20.9847 81.1599 20.1069 81.6213 19.3304C82.0828 18.5538 82.7242 17.9461 83.5458 17.5185C84.3673 17.0795 85.3014 16.8657 86.348 16.8657C87.3384 16.8657 88.1937 17.0683 88.9365 17.4622C89.6792 17.8673 90.2419 18.4413 90.6133 19.1841L88.8127 20.2307C88.5201 19.7693 88.1712 19.4204 87.7323 19.1953C87.3046 18.959 86.8319 18.8464 86.3143 18.8464C85.4364 18.8464 84.7162 19.1278 84.1422 19.7017C83.5683 20.2644 83.2757 21.0297 83.2757 21.9751C83.2757 22.9204 83.557 23.6857 84.131 24.2484C84.6937 24.8223 85.4252 25.1037 86.3143 25.1037C86.8207 25.1037 87.2934 24.9911 87.7323 24.7548C88.1599 24.5185 88.5201 24.1808 88.8127 23.7194L90.6133 24.7661C90.2307 25.5201 89.6567 26.094 88.9139 26.4992C88.1712 26.9043 87.3159 27.1069 86.3368 27.1069C85.2901 27.0956 84.3673 26.8818 83.5458 26.4429Z" fill="white"/>
<path d="M99.1442 16.8545V19.0828C98.9416 19.049 98.7615 19.0265 98.604 19.0265C97.6924 19.0265 96.9834 19.2966 96.4657 19.8256C95.948 20.3545 95.7005 21.1198 95.7005 22.1214V26.9719H93.3596V16.967H95.5879V18.4301C96.2632 17.3834 97.4448 16.8545 99.1442 16.8545Z" fill="white"/>
<path d="M110.983 22.7178H103.139C103.274 23.4493 103.634 24.0345 104.22 24.4735C104.805 24.9011 105.525 25.1149 106.38 25.1149C107.483 25.1149 108.384 24.7548 109.093 24.0233L110.342 25.4638C109.892 26.004 109.329 26.4092 108.643 26.6792C107.956 26.9493 107.18 27.0956 106.324 27.0956C105.221 27.0956 104.253 26.8818 103.421 26.4429C102.588 26.004 101.935 25.3963 101.485 24.6198C101.024 23.8432 100.798 22.9542 100.798 21.9751C100.798 20.996 101.024 20.1294 101.462 19.3416C101.901 18.5651 102.52 17.9574 103.308 17.5185C104.096 17.0795 104.985 16.8657 105.964 16.8657C106.943 16.8657 107.81 17.0795 108.575 17.5072C109.34 17.9349 109.937 18.5426 110.376 19.3191C110.803 20.0956 111.017 21.0072 111.017 22.0201C111.028 22.1889 111.017 22.414 110.983 22.7178ZM104.073 19.3979C103.556 19.8368 103.241 20.4333 103.128 21.1648H108.8C108.699 20.4445 108.395 19.8593 107.877 19.4091C107.36 18.959 106.729 18.7339 105.964 18.7339C105.221 18.7226 104.591 18.9477 104.073 19.3979Z" fill="white"/>
<path d="M120.02 26.4204C119.75 26.6455 119.413 26.8143 119.019 26.9268C118.625 27.0394 118.208 27.0957 117.769 27.0957C116.667 27.0957 115.822 26.8031 115.226 26.2291C114.63 25.6551 114.326 24.8223 114.326 23.7194V18.9027H112.683V17.0458H114.326V14.7612H116.667V17.0458H119.345V18.914H116.667V23.6744C116.667 24.1584 116.79 24.5297 117.027 24.7886C117.263 25.0474 117.612 25.1712 118.062 25.1712C118.591 25.1712 119.019 25.0362 119.368 24.7548L120.02 26.4204Z" fill="white"/>
<path d="M66.4512 33.6907C67.1827 34.411 67.5428 35.4576 67.5428 36.8306V42.5477H66.2149V36.9657C66.2149 35.9415 65.956 35.165 65.4496 34.6248C64.9319 34.0846 64.2116 33.8145 63.2551 33.8145C62.1972 33.8145 61.3531 34.1296 60.7341 34.7599C60.1152 35.3901 59.8113 36.2567 59.8113 37.3708V42.5364H58.4833V32.6891H59.755V34.501C60.1152 33.9046 60.6216 33.4319 61.2631 33.1055C61.9046 32.7792 62.6473 32.6104 63.5026 32.6104C64.7406 32.6104 65.7197 32.9705 66.4512 33.6907Z" fill="white"/>
<path d="M79.6299 38.0235H71.3919C71.4707 39.0477 71.8646 39.8692 72.5736 40.4994C73.2826 41.1297 74.1829 41.4448 75.2746 41.4448C75.8823 41.4448 76.445 41.3322 76.9627 41.1184C77.4691 40.9046 77.9193 40.5782 78.2906 40.1506L79.0447 41.0171C78.6058 41.5461 78.0656 41.94 77.4016 42.2213C76.7488 42.4914 76.0286 42.6377 75.2408 42.6377C74.2279 42.6377 73.3389 42.4239 72.5511 41.9962C71.7746 41.5686 71.1668 40.9721 70.7279 40.2068C70.289 39.4416 70.0752 38.5862 70.0752 37.6184C70.0752 36.6618 70.289 35.7952 70.7054 35.03C71.1218 34.2647 71.6958 33.6795 72.4273 33.2518C73.1588 32.8242 73.9803 32.6104 74.8919 32.6104C75.8035 32.6104 76.625 32.8242 77.3453 33.2518C78.0656 33.6795 78.6395 34.2647 79.0447 35.0187C79.4611 35.7727 79.6636 36.6393 79.6636 37.6071L79.6299 38.0235ZM72.4836 34.6698C71.8421 35.2776 71.4707 36.0653 71.3919 37.0444H78.3807C78.2906 36.0653 77.9305 35.2776 77.289 34.6698C76.6476 34.0621 75.8485 33.7583 74.8807 33.7583C73.9241 33.7583 73.125 34.0621 72.4836 34.6698Z" fill="white"/>
<path d="M87.1134 41.9399C86.8659 42.165 86.5507 42.3338 86.1906 42.4576C85.8192 42.5814 85.4366 42.6376 85.0427 42.6376C84.1199 42.6376 83.4109 42.3901 82.9044 41.8836C82.4092 41.3884 82.1504 40.6794 82.1504 39.7679V33.8145H80.3948V32.6891H82.1504V30.5396H83.4784V32.6891H86.472V33.8145H83.4784V39.7003C83.4784 40.2855 83.6247 40.7357 83.9173 41.0396C84.2099 41.3434 84.6376 41.501 85.1777 41.501C85.4478 41.501 85.7179 41.456 85.9768 41.3659C86.2356 41.2759 86.4495 41.1521 86.6408 40.9946L87.1134 41.9399Z" fill="white"/>
<path d="M100.956 32.7681H102.543L98.3904 42.5478H97.0287L95.0592 37.7761L93.1123 42.5478H91.7505L87.5978 32.7681H89.1733L92.5496 40.916L94.1926 36.8533L92.5045 32.7906H93.8663L95.0705 35.9192L96.2746 32.7906H97.6364L95.9595 36.8533L97.6026 40.916L100.956 32.7681Z" fill="white"/>
<path d="M107.877 42.7277C107.168 42.7277 106.515 42.5927 105.93 42.3226C105.345 42.0525 104.839 41.6923 104.4 41.2309C103.972 40.7695 103.634 40.2293 103.398 39.6216C103.162 39.0139 103.038 38.3724 103.038 37.6972C103.038 37.0107 103.162 36.3579 103.398 35.7502C103.646 35.1425 103.983 34.6023 104.411 34.1409C104.839 33.6795 105.345 33.3081 105.942 33.038C106.527 32.7679 107.168 32.6216 107.866 32.6216C108.564 32.6216 109.216 32.7566 109.802 33.038C110.398 33.3081 110.905 33.6795 111.332 34.1409C111.76 34.6023 112.097 35.1425 112.345 35.7502C112.593 36.3579 112.705 37.0107 112.705 37.6972C112.705 38.3724 112.581 39.0139 112.345 39.6216C112.109 40.2293 111.771 40.7695 111.343 41.2309C110.916 41.6923 110.398 42.0637 109.813 42.3226C109.239 42.5927 108.586 42.7277 107.877 42.7277ZM104.332 37.7084C104.332 38.2599 104.422 38.7663 104.614 39.239C104.805 39.7116 105.052 40.1168 105.368 40.4769C105.683 40.837 106.065 41.1071 106.493 41.3097C106.921 41.5123 107.382 41.6136 107.866 41.6136C108.35 41.6136 108.811 41.5123 109.239 41.3097C109.667 41.1071 110.049 40.8258 110.376 40.4657C110.702 40.1055 110.961 39.7004 111.141 39.2165C111.332 38.7438 111.422 38.2261 111.422 37.6859C111.422 37.1457 111.332 36.6393 111.141 36.1554C110.95 35.6714 110.702 35.255 110.376 34.8949C110.049 34.5348 109.678 34.2534 109.239 34.0508C108.811 33.8483 108.35 33.747 107.866 33.747C107.382 33.747 106.921 33.8483 106.504 34.0508C106.077 34.2534 105.705 34.546 105.379 34.9062C105.052 35.2663 104.794 35.6939 104.614 36.1666C104.433 36.6505 104.332 37.157 104.332 37.7084Z" fill="white"/>
<path d="M119.728 33.9043C118.861 33.9268 118.119 34.1632 117.477 34.6133C116.836 35.0635 116.385 35.6825 116.127 36.4703V42.5362H114.855V32.7789H116.059V35.1198C116.419 34.3657 116.903 33.7805 117.522 33.3641C118.13 32.9365 118.794 32.7227 119.492 32.7227C119.593 32.7227 119.672 32.7339 119.739 32.7452V33.9043H119.728Z" fill="white"/>
<path d="M129.282 42.5364L125.681 37.5396L123.588 39.4866V42.5364H122.316V28.874H123.588V38.1586L129.069 32.8017H130.509L126.525 36.7856L130.667 42.5364H129.282Z" fill="white"/>
</svg>
